<svg xmlns="http://www.w3.org/2000/svg" viewBox="34 332 534 132"><path fill="#FFF" d="M-3331.5 274.6h612v167.1h-612z"/><path fill="#FF4338" d="M44.7 423v-81.5h38c9 0 15.7 3.1 20.3 7.7s6.9 11.3 6.9 18.5c0 7.2-2.6 13.6-7.2 18.5s-11.6 7.7-20.3 7.7H62V423H44.7zm47.9-55.3c0-3.3-1.3-6.2-3.3-8-2.1-1.8-5.1-2.8-8.5-2.8H62.2V379h18.6c3.3 0 6.4-1 8.5-3.1 2-2 3.3-4.8 3.3-8.2zm93.6 55.3v-34.4h-38.6V423h-17.4v-81.5h17.4v31.8h38.6v-31.8h17.4V423h-17.4zm99 0l-2.6-6.9-2.6-6.9h-35l-2.6 6.9-2.6 6.9h-20l15.7-40.9 15.7-40.9h21.6l15.7 40.9 15.7 40.9h-19zm-22.4-64.3l-6.4 17.5-6.4 17.5h25.8l-6.4-17.5-6.6-17.5zm52.7 52.7l4.6-6.7 4.6-6.7c2.8 3.1 6.4 5.7 10.8 7.7 4.4 2.1 9.5 3.3 15.2 3.3 4.9 0 8.2-1 10.8-2.8 2.6-1.8 3.6-3.9 3.6-6.2 0-7.2-11.8-8.2-23.4-11.6-11.8-3.1-23.4-8.5-23.4-23.7 0-6.7 2.8-13.1 8.2-17.5 5.4-4.4 13.1-7.5 22.6-7.5 6.4 0 12.3 1 17.7 2.8 5.4 1.8 10 4.9 14.1 8.5l-4.9 6.4-4.9 6.4c-3.3-3.1-7.2-5.4-11.3-6.7-4.1-1.3-8.2-2.1-12.6-2.1-3.9 0-6.7.8-8.7 2.3-2.1 1.5-3.1 3.6-3.1 5.9 0 6.4 11.8 7.5 23.4 10.8 11.6 3.3 23.4 8.7 23.4 23.9 0 7.5-2.6 14.1-8 18.8-5.4 4.6-13.6 7.5-24.7 7.5-7.7 0-14.7-1.3-20.3-3.6-5.2-2-9.8-5.3-13.7-9.2zM404 423v-81.5h57.6v15.4H421v17.4h24.6v15.4H421v18.6h40.6v15.4H404v-.7z"/><path fill="#B3282D" d="M501.7 423v-15.4h40.6V389h-25.5v-15.4H542v-17.4h-40.3v-15.4H548c3.3 0 6.2 1.3 8.2 3.3 2.1 2.1 3.3 5.1 3.3 8.2v58.2c0 3.3-1.3 6.2-3.3 8.2-2.1 2.1-5.1 3.3-8.2 3.3h-46.2v1z"/><path d="M488.8 365.1c0 2.1-.8 3.9-2.1 5.1-1.3 1.3-3.1 2.1-5.1 2.1s-3.9-.8-5.1-2.1-2.1-3.1-2.1-5.1c0-2.1.8-3.9 2.1-5.1 1.3-1.3 3.1-2.1 5.1-2.1s3.9.8 5.1 2.1c1.4 1.5 2.1 3.3 2.1 5.1zm0 33.5c0 2.1-.8 3.9-2.1 5.1-1.3 1.3-3.1 2.1-5.1 2.1s-3.9-.8-5.1-2.1c-1.3-1.3-2.1-3.1-2.1-5.1s.8-3.9 2.1-5.1 3.1-2.1 5.1-2.1 3.9.8 5.1 2.1c1.4 1.2 2.1 3 2.1 5.1z" fill="#FF4338"/><path d="M57.9 456.7v-11.4l-2.3 5.7-2.3 5.7h-1L50 451l-2.3-5.7v11.4H45v-15.4h3.6l2.1 5.1 2.1 5.1 2.1-5.1 2.1-5.1h3.6v15.4h-2.7zm21 0l-.5-1.5-.5-1.3h-7.2l-.5 1.5-.5 1.5h-3l3.1-7.7 3.1-7.7h3l3.1 7.7 3.1 7.7h-3v-.2zm-4.6-12.6l-1.3 3.6-1.5 3.6h5.6l-1.3-3.6-1.5-3.6zm22.6 12.6l-1.8-2.8-1.8-2.8h-2.6v5.6h-2.6v-15.4h6.6c1.5 0 2.8.5 3.6 1.3.8.8 1.3 2.1 1.3 3.3 0 1.3-.5 2.3-1 3.1s-1.5 1.3-2.6 1.3l1.8 3.1 1.8 3.1h-2.8v.2zm.3-10.6c0-.8-.3-1.3-.8-1.8s-1-.8-1.8-.8H91v5.2h3.6c.8 0 1.3-.3 1.8-.8.5-.2.8-1 .8-1.8zm19 10.6l-2.6-3.1-2.6-3.1-.5.5-.8.8v4.6h-2.6V441h2.6v7.7l3.1-3.6 3.1-3.6h3l-3.1 3.6-3.1 3.6 3.3 4.1 3.3 4.1h-3.1v-.2zm9.8 0v-15.4h10.2v2.6h-7.8v4.2h7.8v2.6h-7.8v4.2h7.8v2.6H126v-.8zm21.3 0v-12.8h-4.6v-2.6h11.8v2.6h-4.6v12.8h-2.6zm14.2 0v-15.4h2.6v15.4h-2.6zm21.1 0l-4.1-5.4-3.9-5.4v10.8H172v-15.4h2.6l3.9 5.4 3.9 5.4v-10.8h2.8v15.4h-2.6zm9.7-7.7c0-2.3.8-4.4 2.3-5.7 1.5-1.3 3.3-2.1 5.7-2.1 1.5 0 2.8.3 3.6 1 1 .5 1.8 1.3 2.3 2.3l-1 .5-1 .5-1.5-1.5c-.5-.5-1.5-.5-2.3-.5-1.5 0-2.8.5-3.9 1.5-1 1-1.5 2.3-1.5 3.9s.5 3.1 1.5 3.9c1 1 2.3 1.5 3.9 1.5.8 0 1.5-.3 2.1-.5s1-.5 1.5-1v-2.6h-4.6v-2.5h7.2v6.4c-.8.8-1.5 1.5-2.8 2.1-1 .5-2.3.8-3.6.8-2.3 0-4.1-.8-5.7-2.1-1.4-1.6-2.2-3.4-2.2-5.9zm42.7 7.7l-.5-1.5-.5-1.3h-7.2l-.5 1.3-.5 1.5h-3l3.1-7.7 3.1-7.7h3l3.1 7.7 3.1 7.7H235zm-4.6-12.6l-1.3 3.6-1.5 3.6h5.6l-1.3-3.6-1.5-3.6zm24.4 12.6l-3.9-5.4-4.1-5.4v10.8h-2.6v-15.4h2.6l3.9 5.4 3.9 5.4v-10.8h2.6v15.4h-2.4zm10.6 0v-15.4h5.6c2.3 0 4.4.8 5.7 2.1 1.3 1.3 2.3 3.3 2.3 5.4 0 2.3-.8 4.1-2.3 5.4-1.3 1.3-3.3 2.1-5.7 2.1h-5.6v.4zm10.8-7.7c0-1.5-.5-2.8-1.3-3.9-.8-1-2.3-1.5-3.9-1.5h-3v10.2h3c1.5 0 3.1-.5 3.9-1.5.8-.5 1.3-1.8 1.3-3.3zm19.8 0c0-2.3.8-4.4 2.3-5.7s3.3-2.1 5.7-2.1c1.5 0 2.8.5 3.9 1s1.8 1.5 2.3 2.3l-1 .5-1 .5c-.3-.5-1-1.3-1.5-1.5-.8-.5-1.5-.5-2.3-.5-1.5 0-2.8.5-3.9 1.5-1 1-1.5 2.3-1.5 3.9 0 1.5.5 3.1 1.5 3.9 1 1 2.3 1.5 3.9 1.5.8 0 1.5-.3 2.3-.5.8-.5 1.3-1 1.5-1.5l1 .5 1 .5c-.5 1-1.3 1.8-2.3 2.3s-2.3 1-3.9 1c-2.3 0-4.4-.8-5.7-2.1-1.6-1.2-2.3-3-2.3-5.5zm20 0c0-2.3.8-4.4 2.1-5.7s3.3-2.3 5.7-2.3c2.3 0 4.1.8 5.7 2.3 1.3 1.3 2.1 3.3 2.1 5.7 0 2.3-.8 4.4-2.1 5.7-1.3 1.3-3.3 2.3-5.7 2.3-2.3 0-4.1-.8-5.7-2.3-1.3-1.4-2.1-3.4-2.1-5.7zm12.9 0c0-1.5-.5-2.8-1.3-3.9-.8-1-2.1-1.5-3.6-1.5s-2.8.5-3.6 1.5c-.8 1-1.3 2.3-1.3 3.9s.5 2.8 1.3 3.9 2.1 1.5 3.6 1.5 2.8-.5 3.6-1.5c.8-.8 1.3-2.1 1.3-3.9zm23.1 7.7v-11.4l-2.3 5.7-2.3 5.7h-1l-2.3-5.7-2.3-5.7v11.4h-2.6v-15.4h3.6l2.1 5.1 2.1 5.1 2.1-5.1 2.1-5.1h3.6v15.4H352zm23.7 0v-11.4l-2.3 5.7-2.3 5.7h-1.3l-2.3-5.7-2.3-5.7v11.4h-2.6v-15.4h3.6l2.1 5.1 2.1 5.1 2.1-5.1 2.1-5.1h3.6v15.4h-2.5zm10.5-5.9v-9.2h2.6v9.2c0 1.3.3 2.3 1 2.8.8.8 1.5 1 2.8 1s2.3-.5 2.8-1 1-1.8 1-2.8v-9.2h2.6v9.2c0 1.8-.5 3.6-1.5 4.6s-2.8 1.8-4.9 1.8c-2.3 0-3.9-.5-4.9-1.8-1-1.3-1.5-2.8-1.5-4.6zm31.7 5.9l-3.9-5.4-3.9-5.4v10.8h-2.6v-15.4h2.6l3.9 5.4 3.9 5.4v-10.8h2.6v15.4h-2.6zm10.2 0v-15.4h2.6v15.4h-2.6zm9.8-7.7c0-2.3.8-4.4 2.3-5.7 1.5-1.3 3.3-2.1 5.7-2.1 1.5 0 2.8.5 3.9 1 1 .5 1.8 1.5 2.3 2.3l-1 .5-1 .5c-.3-.5-1-1.3-1.5-1.5s-1.5-.5-2.3-.5c-1.5 0-2.8.5-3.9 1.5s-1.5 2.3-1.5 3.9c0 1.5.5 3.1 1.5 3.9 1 1 2.3 1.5 3.9 1.5.8 0 1.5-.3 2.3-.5.8-.5 1.3-1 1.5-1.5l1 .5 1 .5c-.5 1-1.3 1.8-2.3 2.3-1 .5-2.3 1-3.9 1-2.3 0-4.4-.8-5.7-2.1-1.3-1.2-2.3-3-2.3-5.5zm31.4 7.7l-.5-1.5-.5-1.5h-7.2l-.5 1.5-.5 1.5h-3l3.1-7.7 3.1-7.7h3l3.1 7.7 3.1 7.7h-3.2zm-4.6-12.6l-1.3 3.6-1.3 3.6h5.6l-1.3-3.6-1.7-3.6zm16.2 12.6v-12.8h-4.6v-2.6h11.8v2.6h-4.6v12.8h-2.6zm14.1 0v-15.4h2.6v15.4H495zm9.8-7.7c0-2.3.8-4.4 2.1-5.7s3.3-2.3 5.7-2.3 4.1.8 5.7 2.3c1.3 1.3 2.1 3.3 2.1 5.7 0 2.3-.8 4.4-2.1 5.7-1.3 1.3-3.3 2.3-5.7 2.3s-4.1-.8-5.7-2.3c-1.4-1.4-2.1-3.4-2.1-5.7zm12.8 0c0-1.5-.5-2.8-1.3-3.9-.8-1-2.1-1.5-3.6-1.5s-2.8.5-3.6 1.5c-.8 1-1.3 2.3-1.3 3.9s.5 2.8 1.3 3.9c.8 1 2.1 1.5 3.6 1.5s2.8-.5 3.6-1.5c.8-.8 1.3-2.1 1.3-3.9zm20.6 7.7l-3.9-5.4-3.9-5.4v10.8h-2.6v-15.4h2.6l3.9 5.4 3.9 5.4v-10.8h2.6v15.4h-2.6zm9.3-2.1l.8-1 .8-1c.5.5 1.3 1 2.1 1.5.8.3 1.8.5 2.8.5 1 0 1.8-.3 2.3-.8s.8-1 .8-1.5c0-1.5-2.3-1.8-4.4-2.6-2.1-.8-4.4-1.5-4.4-4.4 0-1.3.5-2.3 1.5-3.1 1-.8 2.3-1.3 4.1-1.3 1.3 0 2.3.3 3.3.5 1 .3 1.8.8 2.6 1.5l-.8 1-.8 1c-.5-.5-1.3-1-2.1-1.3-.8-.3-1.5-.5-2.3-.5s-1.5.3-1.8.5c-.5.3-.8.8-.8 1.3 0 1.5 2.3 1.8 4.4 2.3 2.1.5 4.4 1.5 4.4 4.4 0 1.3-.5 2.6-1.3 3.3-1 .8-2.3 1.3-4.4 1.3-1.3 0-2.6-.3-3.6-.8-1.7.5-2.5-.3-3.2-.8z" fill="#B3282D"/></svg>