<?xml version="1.0" encoding="utf-8"?>
<!-- Generator: Adobe Illustrator 18.0.0, SVG Export Plug-In . SVG Version: 6.00 Build 0)  -->
<!DOCTYPE svg PUBLIC "-//W3C//DTD SVG 1.1//EN" "http://www.w3.org/Graphics/SVG/1.1/DTD/svg11.dtd">
<svg version="1.1" id="Layer_1" xmlns="http://www.w3.org/2000/svg" xmlns:xlink="http://www.w3.org/1999/xlink" x="0px" y="0px"
	 viewBox="34 332 534 132" enable-background="new 34 332 534 132" xml:space="preserve">
<rect x="-3331.5" y="274.6" fill="#FFFFFF" width="612" height="167.1"/>
<g>
	<path id="XMLID_206_" fill="#FF4338" d="M44.7,423v-40.9v-40.6h19h19c9,0,15.7,3.1,20.3,7.7s6.9,11.3,6.9,18.5
		c0,7.2-2.6,13.6-7.2,18.5c-4.6,4.9-11.6,7.7-20.3,7.7H72.3H62v14.4V423h-8.7H44.7z M92.6,367.7c0-3.3-1.3-6.2-3.3-8
		c-2.1-1.8-5.1-2.8-8.5-2.8h-9.3h-9.3V368V379h9.3h9.3c3.3,0,6.4-1,8.5-3.1C91.3,373.9,92.6,371.1,92.6,367.7z"/>
	<path id="XMLID_204_" fill="#FF4338" d="M186.2,423v-17.2v-17.2h-19.3h-19.3v17.2V423h-8.7h-8.7v-40.9v-40.6h8.7h8.7v15.9v15.9
		h19.3h19.3v-15.9v-15.9h8.7h8.7v40.9V423h-8.7H186.2z"/>
	<path id="XMLID_201_" fill="#FF4338" d="M285.2,423l-2.6-6.9l-2.6-6.9h-17.5h-17.5l-2.6,6.9l-2.6,6.9h-10h-10l15.7-40.9l15.7-40.9
		H262h10.8l15.7,40.9l15.7,40.9h-10H285.2z M262.8,358.7l-6.4,17.5l-6.4,17.5h12.9h12.9l-6.4-17.5L262.8,358.7z"/>
	<path id="XMLID_199_" fill="#FF4338" d="M315.5,411.4l4.6-6.7l4.6-6.7c2.8,3.1,6.4,5.7,10.8,7.7c4.4,2.1,9.5,3.3,15.2,3.3
		c4.9,0,8.2-1,10.8-2.8c2.6-1.8,3.6-3.9,3.6-6.2c0-7.2-11.8-8.2-23.4-11.6c-11.8-3.1-23.4-8.5-23.4-23.7c0-6.7,2.8-13.1,8.2-17.5
		c5.4-4.4,13.1-7.5,22.6-7.5c6.4,0,12.3,1,17.7,2.8c5.4,1.8,10,4.9,14.1,8.5l-4.9,6.4l-4.9,6.4c-3.3-3.1-7.2-5.4-11.3-6.7
		c-4.1-1.3-8.2-2.1-12.6-2.1c-3.9,0-6.7,0.8-8.7,2.3c-2.1,1.5-3.1,3.6-3.1,5.9c0,6.4,11.8,7.5,23.4,10.8
		c11.6,3.3,23.4,8.7,23.4,23.9c0,7.5-2.6,14.1-8,18.8c-5.4,4.6-13.6,7.5-24.7,7.5c-7.7,0-14.7-1.3-20.3-3.6
		C324,418.6,319.4,415.3,315.5,411.4z"/>
	<path id="XMLID_197_" fill="#FF4338" d="M404,423v-40.9v-40.6h28.8h28.8v7.7v7.7h-20.3h-20.3v8.7v8.7h12.3h12.3v7.7v7.7h-12.3
		h-12.3v9.3v9.3h20.3h20.3v7.7v7.7h-28.8H404V423z"/>
	<path id="XMLID_195_" fill="#B3282D" d="M501.7,423v-7.7v-7.7H522h20.3v-9.3v-9.3h-12.6h-12.9v-7.7v-7.7h12.6h12.6v-8.7v-8.7H522
		h-20.3v-7.7v-7.7h23.1H548c3.3,0,6.2,1.3,8.2,3.3c2.1,2.1,3.3,5.1,3.3,8.2v29.1v29.1c0,3.3-1.3,6.2-3.3,8.2
		c-2.1,2.1-5.1,3.3-8.2,3.3h-23.1h-23.1V423z"/>
	<g id="XMLID_190_">
		<path id="XMLID_193_" fill="#FF4338" d="M488.8,365.1c0,2.1-0.8,3.9-2.1,5.1c-1.3,1.3-3.1,2.1-5.1,2.1s-3.9-0.8-5.1-2.1
			s-2.1-3.1-2.1-5.1c0-2.1,0.8-3.9,2.1-5.1c1.3-1.3,3.1-2.1,5.1-2.1s3.9,0.8,5.1,2.1C488.1,361.5,488.8,363.3,488.8,365.1z"/>
		<path id="XMLID_191_" fill="#FF4338" d="M488.8,398.6c0,2.1-0.8,3.9-2.1,5.1c-1.3,1.3-3.1,2.1-5.1,2.1s-3.9-0.8-5.1-2.1
			c-1.3-1.3-2.1-3.1-2.1-5.1s0.8-3.9,2.1-5.1s3.1-2.1,5.1-2.1s3.9,0.8,5.1,2.1C488.1,394.7,488.8,396.5,488.8,398.6z"/>
	</g>
	<g id="XMLID_31_">
		<path id="XMLID_188_" fill="#B3282D" d="M57.9,456.7V451v-5.7l-2.3,5.7l-2.3,5.7h-0.5h-0.5l-2.3-5.7l-2.3-5.7v5.7v5.7h-1.3H45V449
			v-7.7h1.8h1.8l2.1,5.1l2.1,5.1l2.1-5.1l2.1-5.1h1.8h1.8v7.7v7.7h-1.3H57.9z"/>
		<path id="XMLID_185_" fill="#B3282D" d="M78.9,456.7l-0.5-1.5l-0.5-1.3h-3.6h-3.6l-0.5,1.5l-0.5,1.5h-1.5h-1.5l3.1-7.7l3.1-7.7
			h1.5h1.5l3.1,7.7l3.1,7.7h-1.5h-1.5V456.7z M74.3,444.1l-1.3,3.6l-1.5,3.6h2.8h2.8l-1.3-3.6L74.3,444.1z"/>
		<path id="XMLID_182_" fill="#B3282D" d="M96.9,456.7l-1.8-2.8l-1.8-2.8h-1.3h-1.3v2.8v2.8h-1.3h-1.3V449v-7.7h3.3h3.3
			c1.5,0,2.8,0.5,3.6,1.3c0.8,0.8,1.3,2.1,1.3,3.3c0,1.3-0.5,2.3-1,3.1s-1.5,1.3-2.6,1.3l1.8,3.1l1.8,3.1h-1.5h-1.3V456.7z
			 M97.2,446.1c0-0.8-0.3-1.3-0.8-1.8c-0.5-0.5-1-0.8-1.8-0.8h-1.8H91v2.6v2.6h1.8h1.8c0.8,0,1.3-0.3,1.8-0.8
			C96.9,447.7,97.2,446.9,97.2,446.1z"/>
		<path id="XMLID_180_" fill="#B3282D" d="M116.2,456.7l-2.6-3.1l-2.6-3.1l-0.5,0.5l-0.8,0.8v2.3v2.3h-1.3h-1.3v-7.7V441h1.3h1.3
			v3.6v4.1l3.1-3.6l3.1-3.6h1.5h1.5l-3.1,3.6l-3.1,3.6l3.3,4.1l3.3,4.1H118h-1.8V456.7z"/>
		<path id="XMLID_178_" fill="#B3282D" d="M126,456.7V449v-7.7h5.1h5.1v1.3v1.3h-3.9h-3.9v2.1v2.1h3.9h3.9v1.3v1.3h-3.9h-3.9v2.1
			v2.1h3.9h3.9v1.3v1.3h-5.1H126V456.7z"/>
		<path id="XMLID_176_" fill="#B3282D" d="M147.3,456.7v-6.4v-6.4H145h-2.3v-1.3v-1.3h5.9h5.9v1.3v1.3h-2.3h-2.3v6.4v6.4h-1.3H147.3
			z"/>
		<path id="XMLID_174_" fill="#B3282D" d="M161.5,456.7V449v-7.7h1.3h1.3v7.7v7.7h-1.3H161.5z"/>
		<path id="XMLID_172_" fill="#B3282D" d="M182.6,456.7l-4.1-5.4l-3.9-5.4v5.4v5.4h-1.3H172V449v-7.7h1.3h1.3l3.9,5.4l3.9,5.4v-5.4
			v-5.4h1.3h1.5v7.7v7.7h-1.3H182.6z"/>
		<path id="XMLID_170_" fill="#B3282D" d="M192.3,449c0-2.3,0.8-4.4,2.3-5.7c1.5-1.3,3.3-2.1,5.7-2.1c1.5,0,2.8,0.3,3.6,1
			c1,0.5,1.8,1.3,2.3,2.3l-1,0.5l-1,0.5c-0.5-0.5-1-1-1.5-1.5c-0.5-0.5-1.5-0.5-2.3-0.5c-1.5,0-2.8,0.5-3.9,1.5
			c-1,1-1.5,2.3-1.5,3.9s0.5,3.1,1.5,3.9c1,1,2.3,1.5,3.9,1.5c0.8,0,1.5-0.3,2.1-0.5s1-0.5,1.5-1v-1.3v-1.3h-2.3h-2.3V449v-1.3h3.6
			h3.6v3.6v2.8c-0.8,0.8-1.5,1.5-2.8,2.1c-1,0.5-2.3,0.8-3.6,0.8c-2.3,0-4.1-0.8-5.7-2.1C193.1,453.3,192.3,451.5,192.3,449z"/>
		<path id="XMLID_167_" fill="#B3282D" d="M235,456.7l-0.5-1.5l-0.5-1.3h-3.6h-3.6l-0.5,1.3l-0.5,1.5h-1.5h-1.5l3.1-7.7l3.1-7.7h1.5
			h1.5l3.1,7.7l3.1,7.7h-1.5H235z M230.4,444.1l-1.3,3.6l-1.5,3.6h2.8h2.8l-1.3-3.6L230.4,444.1z"/>
		<path id="XMLID_165_" fill="#B3282D" d="M254.8,456.7l-3.9-5.4l-4.1-5.4v5.4v5.4h-1.3h-1.3V449v-7.7h1.3h1.3l3.9,5.4l3.9,5.4v-5.4
			v-5.4h1.3h1.3v7.7v7.7h-1.3H254.8z"/>
		<path id="XMLID_162_" fill="#B3282D" d="M265.4,456.7V449v-7.7h2.8h2.8c2.3,0,4.4,0.8,5.7,2.1c1.3,1.3,2.3,3.3,2.3,5.4
			c0,2.3-0.8,4.1-2.3,5.4c-1.3,1.3-3.3,2.1-5.7,2.1h-2.8h-2.8V456.7z M276.2,449c0-1.5-0.5-2.8-1.3-3.9c-0.8-1-2.3-1.5-3.9-1.5h-1.5
			h-1.5v5.1v5.1h1.5h1.5c1.5,0,3.1-0.5,3.9-1.5C275.7,451.8,276.2,450.5,276.2,449z"/>
		<path id="XMLID_160_" fill="#B3282D" d="M296,449c0-2.3,0.8-4.4,2.3-5.7s3.3-2.1,5.7-2.1c1.5,0,2.8,0.5,3.9,1s1.8,1.5,2.3,2.3
			l-1,0.5l-1,0.5c-0.3-0.5-1-1.3-1.5-1.5c-0.8-0.5-1.5-0.5-2.3-0.5c-1.5,0-2.8,0.5-3.9,1.5c-1,1-1.5,2.3-1.5,3.9
			c0,1.5,0.5,3.1,1.5,3.9c1,1,2.3,1.5,3.9,1.5c0.8,0,1.5-0.3,2.3-0.5c0.8-0.5,1.3-1,1.5-1.5l1,0.5l1,0.5c-0.5,1-1.3,1.8-2.3,2.3
			s-2.3,1-3.9,1c-2.3,0-4.4-0.8-5.7-2.1C296.7,453.3,296,451.5,296,449z"/>
		<path id="XMLID_157_" fill="#B3282D" d="M316,449c0-2.3,0.8-4.4,2.1-5.7s3.3-2.3,5.7-2.3c2.3,0,4.1,0.8,5.7,2.3
			c1.3,1.3,2.1,3.3,2.1,5.7c0,2.3-0.8,4.4-2.1,5.7c-1.3,1.3-3.3,2.3-5.7,2.3c-2.3,0-4.1-0.8-5.7-2.3C316.8,453.3,316,451.3,316,449z
			 M328.9,449c0-1.5-0.5-2.8-1.3-3.9c-0.8-1-2.1-1.5-3.6-1.5s-2.8,0.5-3.6,1.5c-0.8,1-1.3,2.3-1.3,3.9s0.5,2.8,1.3,3.9
			s2.1,1.5,3.6,1.5s2.8-0.5,3.6-1.5C328.4,452.1,328.9,450.8,328.9,449z"/>
		<path id="XMLID_155_" fill="#B3282D" d="M352,456.7V451v-5.7l-2.3,5.7l-2.3,5.7h-0.5h-0.5l-2.3-5.7l-2.3-5.7v5.7v5.7h-1.3h-1.3
			V449v-7.7h1.8h1.8l2.1,5.1l2.1,5.1l2.1-5.1l2.1-5.1h1.8h1.8v7.7v7.7h-1.3H352z"/>
		<path id="XMLID_153_" fill="#B3282D" d="M375.7,456.7V451v-5.7l-2.3,5.7l-2.3,5.7h-0.8h-0.5l-2.3-5.7l-2.3-5.7v5.7v5.7h-1.3h-1.3
			V449v-7.7h1.8h1.8l2.1,5.1l2.1,5.1l2.1-5.1l2.1-5.1h1.8h1.8v7.7v7.7h-1.3H375.7z"/>
		<path id="XMLID_151_" fill="#B3282D" d="M386.2,450.8v-4.6v-4.6h1.3h1.3v4.6v4.6c0,1.3,0.3,2.3,1,2.8c0.8,0.8,1.5,1,2.8,1
			s2.3-0.5,2.8-1s1-1.8,1-2.8v-4.6v-4.6h1.3h1.3v4.6v4.6c0,1.8-0.5,3.6-1.5,4.6s-2.8,1.8-4.9,1.8c-2.3,0-3.9-0.5-4.9-1.8
			C386.7,454.1,386.2,452.6,386.2,450.8z"/>
		<path id="XMLID_56_" fill="#B3282D" d="M417.9,456.7l-3.9-5.4l-3.9-5.4v5.4v5.4h-1.3h-1.3V449v-7.7h1.3h1.3l3.9,5.4l3.9,5.4v-5.4
			v-5.4h1.3h1.3v7.7v7.7h-1.3H417.9z"/>
		<path id="XMLID_53_" fill="#B3282D" d="M428.1,456.7V449v-7.7h1.3h1.3v7.7v7.7h-1.3H428.1z"/>
		<path id="XMLID_50_" fill="#B3282D" d="M437.9,449c0-2.3,0.8-4.4,2.3-5.7c1.5-1.3,3.3-2.1,5.7-2.1c1.5,0,2.8,0.5,3.9,1
			c1,0.5,1.8,1.5,2.3,2.3l-1,0.5l-1,0.5c-0.3-0.5-1-1.3-1.5-1.5s-1.5-0.5-2.3-0.5c-1.5,0-2.8,0.5-3.9,1.5s-1.5,2.3-1.5,3.9
			c0,1.5,0.5,3.1,1.5,3.9c1,1,2.3,1.5,3.9,1.5c0.8,0,1.5-0.3,2.3-0.5c0.8-0.5,1.3-1,1.5-1.5l1,0.5l1,0.5c-0.5,1-1.3,1.8-2.3,2.3
			c-1,0.5-2.3,1-3.9,1c-2.3,0-4.4-0.8-5.7-2.1C438.9,453.3,437.9,451.5,437.9,449z"/>
		<path id="XMLID_46_" fill="#B3282D" d="M469.3,456.7l-0.5-1.5l-0.5-1.5h-3.6h-3.6l-0.5,1.5l-0.5,1.5h-1.5h-1.5l3.1-7.7l3.1-7.7
			h1.5h1.5l3.1,7.7l3.1,7.7h-1.5H469.3z M464.7,444.1l-1.3,3.6l-1.3,3.6h2.8h2.8l-1.3-3.6L464.7,444.1z"/>
		<path id="XMLID_43_" fill="#B3282D" d="M480.9,456.7v-6.4v-6.4h-2.3h-2.3v-1.3v-1.3h5.9h5.9v1.3v1.3h-2.3h-2.3v6.4v6.4h-1.3H480.9
			z"/>
		<path id="XMLID_39_" fill="#B3282D" d="M495,456.7V449v-7.7h1.3h1.3v7.7v7.7h-1.3H495z"/>
		<path id="XMLID_36_" fill="#B3282D" d="M504.8,449c0-2.3,0.8-4.4,2.1-5.7s3.3-2.3,5.7-2.3s4.1,0.8,5.7,2.3
			c1.3,1.3,2.1,3.3,2.1,5.7c0,2.3-0.8,4.4-2.1,5.7c-1.3,1.3-3.3,2.3-5.7,2.3s-4.1-0.8-5.7-2.3C505.5,453.3,504.8,451.3,504.8,449z
			 M517.6,449c0-1.5-0.5-2.8-1.3-3.9c-0.8-1-2.1-1.5-3.6-1.5s-2.8,0.5-3.6,1.5c-0.8,1-1.3,2.3-1.3,3.9s0.5,2.8,1.3,3.9
			c0.8,1,2.1,1.5,3.6,1.5c1.5,0,2.8-0.5,3.6-1.5C517.1,452.1,517.6,450.8,517.6,449z"/>
		<path id="XMLID_34_" fill="#B3282D" d="M538.2,456.7l-3.9-5.4l-3.9-5.4v5.4v5.4h-1.3h-1.3V449v-7.7h1.3h1.3l3.9,5.4l3.9,5.4v-5.4
			v-5.4h1.3h1.3v7.7v7.7h-1.3H538.2z"/>
		<path id="XMLID_32_" fill="#B3282D" d="M547.5,454.6l0.8-1l0.8-1c0.5,0.5,1.3,1,2.1,1.5c0.8,0.3,1.8,0.5,2.8,0.5
			c1,0,1.8-0.3,2.3-0.8s0.8-1,0.8-1.5c0-1.5-2.3-1.8-4.4-2.6c-2.1-0.8-4.4-1.5-4.4-4.4c0-1.3,0.5-2.3,1.5-3.1c1-0.8,2.3-1.3,4.1-1.3
			c1.3,0,2.3,0.3,3.3,0.5c1,0.3,1.8,0.8,2.6,1.5l-0.8,1l-0.8,1c-0.5-0.5-1.3-1-2.1-1.3c-0.8-0.3-1.5-0.5-2.3-0.5s-1.5,0.3-1.8,0.5
			c-0.5,0.3-0.8,0.8-0.8,1.3c0,1.5,2.3,1.8,4.4,2.3c2.1,0.5,4.4,1.5,4.4,4.4c0,1.3-0.5,2.6-1.3,3.3c-1,0.8-2.3,1.3-4.4,1.3
			c-1.3,0-2.6-0.3-3.6-0.8C549,455.9,548.2,455.1,547.5,454.6z"/>
	</g>
</g>
</svg>
